/* XPM */
static char *result[] = {
/* columns rows colors chars-per-pixel */
"50 50 10 1 ",
"  c #3D4258",
". c #45DABE",
"X c gray54",
"o c gray60",
"O c gray63",
"+ c #A7A7A7",
"@ c #E6E6E6",
"# c #F4F4F4",
"$ c white",
"% c None",
/* pixels */
"%%%%%%%%%%%%%%%%%%%%%%++%%%%%%%%%%%%%%%%%%%%%%%%%%",
"%%%%%%%%%%%%%%%%%%%%%%++%%%%%%%%%%%%%%%%%%%%%%%%%%",
"%%%%%%%%%%%%%%%%%%%%++$$++%%%%%%%%%%%%%%%%%%%%%%%%",
"%%%%%%%%%%%%%%%%%%%%++$$++%%%%%%%%%%%%%%%%%%%%%%%%",
"%%%%%%%%%%%%%%%%%%%%++$$++%%%%%%%%%%%%%%%%%%%%%%%%",
"%%%%%%%%%%%%%%%%%%%%++$$++%%%%%%%%%%%%%%%%%%%%%%%%",
"%%%%%%%%%%%%%%%%%%%%++$$OO%%%%%%%%%%%%%%%%%%%%%%%%",
"%%%%%%%%%%%%%%%%%%%%++$$OO%%%%%%%%%%%%%%%%%%%%%%%%",
"%%%%%%%%%%%%%%%%%%%%OO$$OO%%%%%%%%%%%%%%%%%%%%%%%%",
"%%%%%%%%%%%%%%%%%%%%OO$$OO%%%%%%%%%%%%%%%%%%%%%%%%",
"%%%%%%%%%%%%%%%%%%%%OO##OO%%%%%%%%%%%%%%%%%%%%%%%%",
"%%%%%%%%%%%%%%%%%%%%OO##OO%%%%%%%%%%%%%%%%%%%%%%%%",
"%%%%%%%%%%%%%%%%%%%%oo@@@@OO%%%%%%%%%%%%%%%%%%%%%%",
"%%%%%%%%%%%%%%%%%%%%oo@@@@OO%%%%%%%%%%%%%%%%%%%%%%",
"%%%%%%%%%%%%%%%%++oo##$$$$$$oo%%++%%%%%%%%%%%%%%%%",
"%%%%%%%%%%%%%%%%++oo##$$$$$$oo%%++%%%%%%%%%%%%%%%%",
"%%%%%%%%%%%%%%++$$++##########++$$++%%%%%%%%%%%%%%",
"%%%%%%%%%%%%%%++$$++##########++$$++%%%%%%%%%%%%%%",
"%%%%%%%%%%%%%%++$$$$++@@@@@@++$$$$++%%%%%%%%%%%%%%",
"%%%%%%%%%%%%%%++$$$$++@@@@@@++$$$$++%%%%%%%%%%%%%%",
"%%%%%%%%%%%%%%++$$$$++++++++++$$$$++%%%%%%%%%%%%%%",
"%%%%%%%%%%%%%%++$$$$++++++++++$$$$++%%%%%%%%%%%%%%",
"%%%%%%%%%%%%%%++$$$$$$$$$$$$$$$$$$++%%%%%%%%%%%%%%",
"%%%%%%%%%%%%%%++$$$$$$$$$$$$$$$$$$++%%%%%%%%%%%%%%",
"%%%%%%%%%%%%%%++$$$$..$$$$$$..$$$$OO%%%%%%%%%%%%%%",
"%%%%%%%%%%%%%%++$$$$..$$$$$$..$$$$OO%%%%%%%%%%%%%%",
"%%%%%%%%%%%%%%OO$$$$..$$$$$$..$$$$OO%%%%%%%%%%%%%%",
"%%%%%%%%%%%%%%OO$$$$..$$$$$$..$$$$OO%%%%%%%%%%%%%%",
"%%%%%%%%%%%%%%OO##$$$$$$  $$$$$$##oo%%%%%%%%%%%%%%",
"%%%%%%%%%%%%%%OO##$$$$$$  $$$$$$##oo%%%%%%%%%%%%%%",
"%%%%%%%%%%%%%%%%OO####$$$$$$####OO%%%%%%%%%%%%%%%%",
"%%%%%%%%%%%%%%%%OO####$$$$$$####OO%%%%%%%%%%%%%%%%",
"%%%%%%%%%%%%%%%%XXooooooooooooooXX%%%%%%%%%%%%%%%%",
"%%%%%%%%%%%%%%%%XXooooooooooooooXX%%%%%%%%%%%%%%%%",
"%%%%%%%%%%%%%%%%oo@@@@@@@@@@@@@@oo%%%%%%%%%%%%%%%%",
"%%%%%%%%%%%%%%%%oo@@@@@@@@@@@@@@oo%%%%%%%%%%%%%%%%",
"%%%%%%%%%%%%%%%%OO##############OO%%%%%%%%%%%%%%%%",
"%%%%%%%%%%%%%%%%OO##############OO%%%%%%%%%%%%%%%%",
"%%%%%%%%%%%%%%%%%%OO$$OOOOOO$$OO%%%%%%%%%%%%%%%%%%",
"%%%%%%%%%%%%%%%%%%OO$$OOOOOO$$OO%%%%%%%%%%%%%%%%%%",
"%%%%%%%%%%%%%%%%%%OO##OO%%OO$$OO%%%%%%%%%%%%%%%%%%",
"%%%%%%%%%%%%%%%%%%OO##OO%%OO$$OO%%%%%%%%%%%%%%%%%%",
"%%%%%%%%%%%%%%%%%%OO##OO%%OO$$OO%%%%%%%%%%%%%%%%%%",
"%%%%%%%%%%%%%%%%%%OO##OO%%OO$$OO%%%%%%%%%%%%%%%%%%",
"%%%%%%%%%%%%%%%%%%%%OOOO%%OO##OO%%%%%%%%%%%%%%%%%%",
"%%%%%%%%%%%%%%%%%%%%OOOO%%OO##OO%%%%%%%%%%%%%%%%%%",
"%%%%%%%%%%%%%%%%%%%%%%%%%%OO##OO%%%%%%%%%%%%%%%%%%",
"%%%%%%%%%%%%%%%%%%%%%%%%%%OO##OO%%%%%%%%%%%%%%%%%%",
"%%%%%%%%%%%%%%%%%%%%%%%%%%OOOO%%%%%%%%%%%%%%%%%%%%",
"%%%%%%%%%%%%%%%%%%%%%%%%%%OOOO%%%%%%%%%%%%%%%%%%%%"
};
