/* XPM */
static char *result[] = {
/* columns rows colors chars-per-pixel */
"50 50 3 1 ",
"  c #A53030",
". c #CF573C",
"X c None",
/* pixels */
"XXXXXXXXXXXXXXXXXXXXXXXXXXXXXXXXXXXXXXXXXXXXXXXXXX",
"XXXXXXXXXXXXXXXXXXXXXXXXXXXXXXXXXXXXXXXXXXXXXXXXXX",
"XXXXXXXXXXXXXXXXXXXXXXXXXXXXXXXXXXXXXXXXXXXXXXXXXX",
"XXXXXXXXXXXXXXXXXXXXXXXXXXXXXXXXXXXXXXXXXXXXXXXXXX",
"XXXXXXXXXXXXXXXXXXXXXXXXXXXXXXXXXXXXXXXXXXXXXXXXXX",
"XXXXXXXXXXXXXXXXXXXXXXXXXXXXXXXXXXXXXXXXXXXXXXXXXX",
"XXXXXXXXXXXXXXXXXXXXXXXXXXXXXXXXXXXXXXXXXXXXXXXXXX",
"XXXXXXXXXXXXXXXXXXXXXXXXXXXXXXXXXXXXXXXXXXXXXXXXXX",
"XXXXXXXXXXXXXXXXXXXXXXXXXXXXXXXXXXXXXXXXXXXXXXXXXX",
"XXXXXXXXXXX........ .................  XXXXXXXXXXX",
"XXXXXXXXXXX........ .................  XXXXXXXXXXX",
"XXXXXXXX......  ....  .  ........... .....XXXXXXXX",
"XXXXXXXX......  ....  .  ........... .....XXXXXXXX",
"XXXXXX.....                            .....XXXXXX",
"XXXXX....  ............................  ....XXXXX",
"XXXXX....  ............................  ....XXXXX",
"XXXXX... .. ..  ................. .. .... ...XXXXX",
"XXX...  ....  .. .................  ......  ...XXX",
"XXX...  ....  .. .................  ......  ...XXX",
"XXX...  ... ..  ..........................  ...XXX",
"XXX..   .  ........ .......... ...........   ..XXX",
"XXX..   .  ........ .......... ...........   ..XXX",
"XXX...  ... .....  .  ......  .  ......  .  .  XXX",
"XXX...  .  ..... .....      ..... ...  ...   ..XXX",
"XXX...  .  ..... .....      ..... ...  ...   ..XXX",
"XXX...  ........ ................ .....  .  ...XXX",
"XXX...  ........ ................ .....  .  ...XXX",
"XXX...  ........ ................ ........  ...XXX",
"XXX  .  ....  .. ...  ......  ... .. .....  ...XXX",
"XXX  .  ....  .. ...  ......  ... .. .....  ...XXX",
"XXX...  ......  ....  ......  ....  ......   ..XXX",
"XXX..   ... ..  ..................  .  ...   ..XXX",
"XXX..   ... ..  ..................  .  ...   ..XXX",
"XXX  .  ........ ................ ........  ...XXX",
"XXX..   ......  .                .  ......  ...XXX",
"XXX..   ......  .                .  ......  ...XXX",
"XXX...  ..................................  ...XXX",
"XXX...  ..................................  ...XXX",
"XXX...  ... ..  ........... .. ...........  ...XXX",
"XXXXX... ...  .. ...........  .  ........ ...XXXXX",
"XXXXX... ...  .. ...........  .  ........ ...XXXXX",
"XXXXX....  ...  .......................   ...XXXXX",
"XXXXXX.....                            .....XXXXXX",
"XXXXXX.....                            .....XXXXXX",
"XXXXXXXX........ ...  ........... ........XXXXXXXX",
"XXXXXXXXXXX........ .......... ........XXXXXXXXXXX",
"XXXXXXXXXXX........ .......... ........XXXXXXXXXXX",
"XXXXXXXXXXXXXXXXXXXXXXXXXXXXXXXXXXXXXXXXXXXXXXXXXX",
"XXXXXXXXXXXXXXXXXXXXXXXXXXXXXXXXXXXXXXXXXXXXXXXXXX",
"XXXXXXXXXXXXXXXXXXXXXXXXXXXXXXXXXXXXXXXXXXXXXXXXXX"
};
