/* XPM */
static char *result[] = {
/* columns rows colors chars-per-pixel */
"50 50 9 1 ",
"  c #3D4258",
". c #45DABE",
"X c gray60",
"o c gray63",
"O c #A7A7A7",
"+ c #E6E6E6",
"@ c #F4F4F4",
"# c white",
"$ c None",
/* pixels */
"$$$$$$$$$$$$$$$$$$$$$$$$$$$$$$$$$$$$$$$$$$$$$$$$$$",
"$$$$$$$$$$$$$$$$$$$$$$$$$$$$$$$$$$$$$$$$$$$$$$$$$$",
"$$$$$$$$$$$$$$$$$$$$$$$$$$$$$$$$$$$$$$$$$$$$$$$$$$",
"$$$$$$$$$$$$$$$$$$$$$$$$$$$$$$$$$$$$$$$$$$$$$$$$$$",
"$$$$$$$$$$$$$$$$$$$$$$$$$$$$$$$$$$$$$$$$$$$$$$$$$$",
"$$$$$$$$$$$$$$$$$$$$$$$$$$$$$$$$$$$$$$$$$$$$$$$$$$",
"$$$$$$$$$$$$$$$$$$$$$$$$$$$$$$$$$$$$$$$$$$OO$$$$$$",
"$$$$$$$$$$$$$$$$$$$$$$$$$$$$$$$$$$$$$$$$$$OO$$$$$$",
"$$$$$$$$$$$$$$$$OO$$$$$$$$$$$$$$$$$$$$$$OO##OO$$$$",
"$$$$$$$$$$$$$$$$OO$$$$$$$$$$$$$$$$$$$$$$OO##OO$$$$",
"$$$$$$$$$$$$$$OO@@OO$$$$$$$$$$$$$$$$$$$$OO##OO$$$$",
"$$$$$$$$$$$$$$OO@@OO$$$$$$$$$$$$$$$$$$$$OO##OO$$$$",
"$$$$$$$$$$$$OO####@@OO$$$$$$$$$$$$$$$$$$OO##oo$$$$",
"$$$$$$$$$$$$OO####@@OO$$$$$$$$$$$$$$$$$$OO##oo$$$$",
"$$$$$$$$OOOOOO######OO$$$$$$$$$$$$$$$$$$OO##oo$$$$",
"$$$$$$$$OOOOOO######OO$$$$$$$$$$$$$$$$$$OO##oo$$$$",
"$$$$$$OO##############OO$$$$$$$$$$$$$$$$OO##oo$$$$",
"$$$$$$OO##############OO$$$$$$$$$$$$$$$$OO##oo$$$$",
"$$$$$$OO##..##########oo$$$$$$$$$$$$$$$$OO##oo$$$$",
"$$$$$$OO##..##########oo$$$$$$$$$$$$$$$$OO##oo$$$$",
"$$$$  ####..##########oo$$$$$$$$$$$$$$OO##@@XX$$$$",
"$$$$  ####..##########oo$$$$$$$$$$$$$$OO##@@XX$$$$",
"$$$$oo@@##############@@XXooOOOOOOOOOO####oo$$$$$$",
"$$$$oo@@##############@@XXooOOOOOOOOOO####oo$$$$$$",
"$$$$$$oo@@##########@@##################@@XX$$$$$$",
"$$$$$$oo@@##########@@##################@@XX$$$$$$",
"$$$$$$$$XXXXXX++@@@@####################oo$$$$$$$$",
"$$$$$$$$XXXXXX++@@@@####################oo$$$$$$$$",
"$$$$$$$$$$$$$$XX@@######################oo$$$$$$$$",
"$$$$$$$$$$$$$$XX@@######################oo$$$$$$$$",
"$$$$$$$$$$$$$$XX@@####################@@XX$$$$$$$$",
"$$$$$$$$$$$$$$XX@@####################@@XX$$$$$$$$",
"$$$$$$$$$$$$$$$$XX@@##################XX$$$$$$$$$$",
"$$$$$$$$$$$$$$$$XX@@##################XX$$$$$$$$$$",
"$$$$$$$$$$$$$$$$$$oo@@oooooooooooooo@@oo$$$$$$$$$$",
"$$$$$$$$$$$$$$$$$$oo@@oooooooooooooo@@oo$$$$$$$$$$",
"$$$$$$$$$$$$$$$$$$oo@@ooXX$$$$XX++oo@@oo$$$$$$$$$$",
"$$$$$$$$$$$$$$$$$$oo@@ooXX$$$$XX++oo@@oo$$$$$$$$$$",
"$$$$$$$$$$$$$$$$oo@@@@ooXX$$$$$$XXoo@@oo$$$$$$$$$$",
"$$$$$$$$$$$$$$$$oo@@@@ooXX$$$$$$XXoo@@oo$$$$$$$$$$",
"$$$$$$$$$$$$$$$$oo@@oo$$$$$$$$$$$$oo@@oo$$$$$$$$$$",
"$$$$$$$$$$$$$$$$oo@@oo$$$$$$$$$$$$oo@@oo$$$$$$$$$$",
"$$$$$$$$$$$$$$$$oooooo$$$$$$$$$$$$oooooo$$$$$$$$$$",
"$$$$$$$$$$$$$$$$oooooo$$$$$$$$$$$$oooooo$$$$$$$$$$",
"$$$$$$$$$$$$$$$$$$$$$$$$$$$$$$$$$$$$$$$$$$$$$$$$$$",
"$$$$$$$$$$$$$$$$$$$$$$$$$$$$$$$$$$$$$$$$$$$$$$$$$$",
"$$$$$$$$$$$$$$$$$$$$$$$$$$$$$$$$$$$$$$$$$$$$$$$$$$",
"$$$$$$$$$$$$$$$$$$$$$$$$$$$$$$$$$$$$$$$$$$$$$$$$$$",
"$$$$$$$$$$$$$$$$$$$$$$$$$$$$$$$$$$$$$$$$$$$$$$$$$$",
"$$$$$$$$$$$$$$$$$$$$$$$$$$$$$$$$$$$$$$$$$$$$$$$$$$"
};
