/* XPM */
static char *result[] = {
/* columns rows colors chars-per-pixel */
"50 50 9 1 ",
"  c #3D4258",
". c #45DABE",
"X c gray60",
"o c gray63",
"O c #A7A7A7",
"+ c #E6E6E6",
"@ c #F4F4F4",
"# c white",
"$ c None",
/* pixels */
"$$$$$$$$$$$$$$$$$$$$$$$$$$$$$$$$$$$$$$$$$$$$$$$$$$",
"$$$$$$$$$$$$$$$$$$$$$$$$$$$$$$$$$$$$$$$$$$$$$$$$$$",
"$$$$$$$$$$$$$$$$$$$$$$$$$$$$$$$$$$$$$$$$$$$$$$$$$$",
"$$$$$$$$$$$$$$$$$$$$$$$$$$$$$$$$$$$$$$$$$$$$$$$$$$",
"$$$$$$$$$$$$$$$$$$$$$$$$$$$$$$$$$$$$$$$$$$$$$$$$$$",
"$$$$$$OO$$$$$$$$$$$$$$$$$$$$$$$$$$$$$$$$$$$$$$$$$$",
"$$$$$$OO$$$$$$$$$$$$$$$$$$$$$$$$$$$$$$$$$$$$$$$$$$",
"$$$$OO##OO$$$$$$$$$$$$$$$$$$$$$$$OO$$$$$$$$$$$$$$$",
"$$$$OO##OO$$$$$$$$$$$$$$$$$$$$$$$OO$$$$$$$$$$$$$$$",
"$$$$OO##OO$$$$$$$$$$$$$$$$$$$$$OO@@OO$$$$$$$$$$$$$",
"$$$$OO##OO$$$$$$$$$$$$$$$$$$$$$OO@@OO$$$$$$$$$$$$$",
"$$$$oo##OO$$$$$$$$$$$$$$$$$$$OO@@####OOO$$$$$$$$$$",
"$$$$oo##OO$$$$$$$$$$$$$$$$$$$OO@@####OOO$$$$$$$$$$",
"$$$$oo##OO$$$$$$$$$$$$$$$$$$$OO@@####OOO$$$$$$$$$$",
"$$$$oo##OO$$$$$$$$$$$$$$$$$$$OO######OOOOOOO$$$$$$",
"$$$$oo##OO$$$$$$$$$$$$$$$$$$$OO######OOOOOOO$$$$$$",
"$$$$oo##OO$$$$$$$$$$$$$$$$$OO###############OO$$$$",
"$$$$oo##OO$$$$$$$$$$$$$$$$$OO###############OO$$$$",
"$$$$oo##OO$$$$$$$$$$$$$$$$$oo###########..##OO$$$$",
"$$$$oo##OO$$$$$$$$$$$$$$$$$oo###########..##OO$$$$",
"$$$$XX@@##OO$$$$$$$$$$$$$$$oo###########..####  $$",
"$$$$XX@@##OO$$$$$$$$$$$$$$$oo###########..####  $$",
"$$$$XX@@##OO$$$$$$$$$$$$$$$oo###########..####  $$",
"$$$$$$oo####OOOOOOOOOOOooXX@@###############@@oo$$",
"$$$$$$oo####OOOOOOOOOOOooXX@@###############@@oo$$",
"$$$$$$XX@@###################@@###########@@oo$$$$",
"$$$$$$XX@@###################@@###########@@oo$$$$",
"$$$$$$$$oo#####################@@@@++XXXXXXX$$$$$$",
"$$$$$$$$oo#####################@@@@++XXXXXXX$$$$$$",
"$$$$$$$$oo#####################@@@@++XXXXXXX$$$$$$",
"$$$$$$$$oo#######################@@XX$$$$$$$$$$$$$",
"$$$$$$$$oo#######################@@XX$$$$$$$$$$$$$",
"$$$$$$$$XX@@#####################@@XX$$$$$$$$$$$$$",
"$$$$$$$$XX@@#####################@@XX$$$$$$$$$$$$$",
"$$$$$$$$$$XX###################@@XX$$$$$$$$$$$$$$$",
"$$$$$$$$$$XX###################@@XX$$$$$$$$$$$$$$$",
"$$$$$$$$$$oo@@@oooooooooooooo@@ooXX$$$$$$$$$$$$$$$",
"$$$$$$$$$$oo@@@oooooooooooooo@@ooXX$$$$$$$$$$$$$$$",
"$$$$$$$$$$oo@@@oooooooooooooo@@ooXX$$$$$$$$$$$$$$$",
"$$$$$$$$oo@@@@@oo++XX$$$$oo@@@@oo++XX$$$$$$$$$$$$$",
"$$$$$$$$oo@@@@@oo++XX$$$$oo@@@@oo++XX$$$$$$$$$$$$$",
"$$$$$$$$oooooooXXXXXX$$$$oo@@ooXXXXXX$$$$$$$$$$$$$",
"$$$$$$$$oooooooXXXXXX$$$$oo@@ooXXXXXX$$$$$$$$$$$$$",
"$$$$$$$$$$$$$$$$$$$$$$$$$oooo$$$$$$$$$$$$$$$$$$$$$",
"$$$$$$$$$$$$$$$$$$$$$$$$$oooo$$$$$$$$$$$$$$$$$$$$$",
"$$$$$$$$$$$$$$$$$$$$$$$$$$$$$$$$$$$$$$$$$$$$$$$$$$",
"$$$$$$$$$$$$$$$$$$$$$$$$$$$$$$$$$$$$$$$$$$$$$$$$$$",
"$$$$$$$$$$$$$$$$$$$$$$$$$$$$$$$$$$$$$$$$$$$$$$$$$$",
"$$$$$$$$$$$$$$$$$$$$$$$$$$$$$$$$$$$$$$$$$$$$$$$$$$",
"$$$$$$$$$$$$$$$$$$$$$$$$$$$$$$$$$$$$$$$$$$$$$$$$$$"
};
