/* XPM */
static char *result[] = {
/* columns rows colors chars-per-pixel */
"50 50 8 1 ",
"  c #10141F",
". c #202E37",
"X c #394A50",
"o c #577277",
"O c #DA863E",
"+ c #E8C170",
"@ c #E7D5B3",
"# c None",
/* pixels */
"##################################################",
"##################################################",
"##################################################",
"##################################################",
"##################################################",
"##################################################",
"##################################################",
"##################################################",
"##################################################",
"###################...........####################",
"###################...........####################",
"################...XXXXXXXXXXX...#################",
"################...XXXXXXXXXXX...#################",
"##############..XXX...........XXX.################",
"############........................##############",
"############........................##############",
"###########..........................#############",
"#########..............................###########",
"#########..............................###########",
"#########..............................###########",
"########...........X........XX...........#########",
"########...........X........XX...........#########",
"########.........XX...........X..........#########",
"######## .......X..............XX......  #########",
"######## .......X..............XX......  #########",
"######## .......X..............XX......  #########",
"######## .......X..............XX......  #########",
"######## .......X......oo......XX......  #########",
"########   .....OXX...o++oo...XOO....    #########",
"########   .....OXX...o++oo...XOO....    #########",
"########   .....+OOX...oo...XXO++....    #########",
"########    ....+++@XX.....X@@+++...     #########",
"########    ....+++@XX.....X@@+++...     #########",
"########    .....@@@OOXXXXXO@@@.....     #########",
"#########     .....@..XXXXX.@@....     ###########",
"#########     .....@..XXXXX.@@....     ###########",
"#########        ..............        ###########",
"#########        ..............        ###########",
"###########         ........         #############",
"############                        ##############",
"############                        ##############",
"##############                    ################",
"################                 #################",
"################                 #################",
"###################           ####################",
"##################################################",
"##################################################",
"##################################################",
"##################################################",
"##################################################"
};
