/* XPM */
static char *result[] = {
/* columns rows colors chars-per-pixel */
"30 30 71 1 ",
"  c black",
". c #13355C",
"X c #3D2A45",
"o c #14326A",
"O c #4B3D54",
"+ c #25425F",
"@ c #124277",
"# c #124479",
"$ c #685A5E",
"% c #5C4767",
"& c #684969",
"* c #674470",
"= c #685673",
"- c #7A517C",
"; c #797779",
": c #797979",
"> c #A92021",
", c #AC2223",
"< c #AD2324",
"1 c #CC3333",
"2 c #B24D3B",
"3 c #B54F3D",
"4 c #C86E5B",
"5 c #E24D6A",
"6 c #EA5B69",
"7 c #C87261",
"8 c #CE8B6D",
"9 c #CF9271",
"0 c #4031A3",
"q c #1F5D9D",
"w c #746180",
"e c #1671CB",
"r c #0078EF",
"t c #4278C7",
"y c #F17E80",
"u c #F47B87",
"i c #0795FA",
"p c #0391FF",
"a c #2989E7",
"s c #06A0FF",
"d c #12A8FF",
"f c #14B5FF",
"g c #4F9CE6",
"h c #39E7FF",
"j c #898189",
"k c #888788",
"l c #928A92",
"z c gray57",
"x c #959595",
"c c #9D959C",
"v c #AFAFAF",
"b c gray72",
"n c #DC8C83",
"m c #DC9385",
"M c #DE9586",
"N c #F9808A",
"B c #DCA593",
"V c #99BCE5",
"C c #96B7E8",
"Z c #BDD5EE",
"A c #BED8F0",
"S c #BEDCF1",
"D c #D0D0D0",
"F c LightGray",
"G c #FFD2DA",
"H c #D1E8F7",
"J c #D5FDFF",
"K c #FFE0E5",
"L c #E2FDFF",
"P c white",
"I c None",
/* pixels */
"IIIIIIIIIIIIIIIIIIIIIIIIIIIIII",
"IIIIIIIIIIIIIIIIIIIIIIIIIIIIII",
"IIIIIIIIIIIIIIIIIIIIIIIIIIIIII",
"IIIIIIIIIIIIIIIIIIIIIIIIIIIIII",
"IIIIIIIIIIIIIIIIIIIIIIIIIIIIII",
"IIIIIIIIIIIIIIIIIIIIIIIIIIIIII",
"IIIIIIII              IIIIIIII",
"IIIII   lvDDDDDDDvvvll  IIIIII",
"II  v$$&:kxk;;kxxxxk::X$vv III",
"II  v$$&:kxk;;kxxxxk::X$vv III",
"II$$v$$bbbFbbbbFFFFbbbj$vv$ II",
"II55$vvj*O%=wwwww==%--vvz$5 II",
"II55$vvj*O%=wwwww==%--vvz$5 II",
"IIZZ>66j$$$$$$$$$$$$$$N6>>Z II",
"IIrrZ,,66uuuGGGKKuuu66<,ZZr II",
"II..rAA<###qy#qyy11<<<SArrr II",
"IIVV.@@#JJJJg#J##HHHSSsprri II",
"IIttC@@J#J#Lg##PP###sso04nr II",
"IICCVddq#J#J#J#J#JJJffMm28i II",
"IIVVCpps#J#LgJJJgqq###93n4r II",
"IIrrVddf#J##PL###JJJ##7B8ra II",
"IIjjeppsfqLq##fhgqq#JJspaej II",
"II  jeerss##sssss##s##eecj III",
"IIIII  +jjcvvvvccvvcjj  IIIIII",
"IIIII  +jjcvvvvccvvcjj  IIIIII",
"IIIIIIIIIIIIIIIIIIIIIIIIIIIIII",
"IIIIIIIIIIIIIIIIIIIIIIIIIIIIII",
"IIIIIIIIIIIIIIIIIIIIIIIIIIIIII",
"IIIIIIIIIIIIIIIIIIIIIIIIIIIIII",
"IIIIIIIIIIIIIIIIIIIIIIIIIIIIII"
};
