/* XPM */
static char *result[] = {
/* columns rows colors chars-per-pixel */
"50 50 81 1 ",
"  c black",
". c #13355C",
"X c #3D2A45",
"o c #14326A",
"O c #4B3D54",
"+ c #57385E",
"@ c #573661",
"# c #25425F",
"$ c #124277",
"% c #124479",
"& c #685A5E",
"* c #5C4767",
"= c #684969",
"- c #674470",
"; c #685673",
": c #7A517C",
"> c #797779",
", c #797979",
"< c #A92021",
"1 c #AC2223",
"2 c #AD2324",
"3 c #CC3333",
"4 c #B24D3B",
"5 c #B54F3D",
"6 c #B54E3F",
"7 c #C86E5B",
"8 c #E24D6A",
"9 c #EA5B69",
"0 c #C87261",
"q c #E06D78",
"w c #CE8B6D",
"e c #CF9271",
"r c #4031A3",
"t c #1F5D9D",
"y c #21468E",
"u c #746180",
"i c #1671CB",
"p c #0078EF",
"a c #4278C7",
"s c #F17E80",
"d c #F47B87",
"f c #1A88D8",
"g c #0795FA",
"h c #0391FF",
"j c #2989E7",
"k c #06A0FF",
"l c #12A8FF",
"z c #14B5FF",
"x c #2DBCEE",
"c c #4F9CE6",
"v c #39E7FF",
"b c #898189",
"n c #888788",
"m c #928A92",
"M c gray57",
"N c #959595",
"B c #9D959C",
"V c #A09FA0",
"C c #AFAFAF",
"Z c gray72",
"A c #DC8C83",
"S c #DC9385",
"D c #DE9586",
"F c #F9808A",
"G c #EE8B90",
"H c #DCA593",
"J c #FA99A5",
"K c #99BCE5",
"L c #96B7E8",
"P c #BDD5EE",
"I c #BED8F0",
"U c #BEDCF1",
"Y c #D0D0D0",
"T c LightGray",
"R c #FFD2DA",
"E c #D1E8F7",
"W c #D5FDFF",
"Q c #FFE0E5",
"! c #E2FDFF",
"~ c white",
"^ c None",
/* pixels */
"^^^^^^^^^^^^^^^^^^^^^^^^^^^^^^^^^^^^^^^^^^^^^^^^^^",
"^^^^^^^^^^^^^^^^^^^^^^^^^^^^^^^^^^^^^^^^^^^^^^^^^^",
"^^^^^^^^^^^^^^^^^^^^^^^^^^^^^^^^^^^^^^^^^^^^^^^^^^",
"^^^^^^^^^^^^^^^^^^^^^^^^^^^^^^^^^^^^^^^^^^^^^^^^^^",
"^^^^^^^^^^^^^^^^^^^^^^^^^^^^^^^^^^^^^^^^^^^^^^^^^^",
"^^^^^^^^^^^^^^^^^^^^^^^^^^^^^^^^^^^^^^^^^^^^^^^^^^",
"^^^^^^^^^^^^^^^^^^^^^^^^^^^^^^^^^^^^^^^^^^^^^^^^^^",
"^^^^^^^^^^^^^^^^^^^^^^^^^^^^^^^^^^^^^^^^^^^^^^^^^^",
"^^^^^^^^^^^^^^^^^^^^^^^^^^^^^^^^^^^^^^^^^^^^^^^^^^",
"^^^^^^^^^^^^^^^^^^^^^^^^^^^^^^^^^^^^^^^^^^^^^^^^^^",
"^^^^^^^^^^^^^^                      ^^^^^^^^^^^^^^",
"^^^^^^^^^     mCCYYYYYYYYYYYYCCCCCmm    ^^^^^^^^^^",
"^^^^^^^^^     mCCYYYYYYYYYYYYCCCCCmm    ^^^^^^^^^^",
"^^^^^^   mmCCC&@@XXXXXXXXXXXXXXXX@&&CCCm   ^^^^^^^",
"^^^^  CCC&&X==,nnNnn>>>nnNNNNNNnn>,,+XX&CCC  ^^^^^",
"^^^^  CCC&&X==,nnNnn>>>nnNNNNNNnn>,,+XX&CCC  ^^^^^",
"^^^ &&mm&CCCCCmVVCVVmmmVVCCCCCCVVmCCCCCm&&mmm  ^^^",
"^^^ &&CCC&&bZZZZZTZZZZZZZTTTTTTZZZZZZbb&CCC&&  ^^^",
"^^^ &&CCC&&bZZZZZTZZZZZZZTTTTTTZZZZZZbb&CCC&&  ^^^",
"^^^ 88&&mCCCbb-OO*;;uuuuuuuuu;;***::bCCCMM&88  ^^^",
"^^^ 88&&mCCCbb-OO*;;uuuuuuuuu;;***::bCCCMM&88  ^^^",
"^^^ <<889&&bMMmBBCYYYYCYYYYYCCCCCCCCMbb&qq8<<  ^^^",
"^^^ PP<<<99Gbb&&&&&&&&&&&&&&&&&&&&&&bFF9<<<PP  ^^^",
"^^^ PP<<<99Gbb&&&&&&&&&&&&&&&&&&&&&&bFF9<<<PP  ^^^",
"^^^ ppPPP112999dddddRRRRRQQQJdddd9999221PPPpp  ^^^",
"^^^ ..pppIIU22%%%%ttss%ttsss333222222UUIppppp  ^^^",
"^^^ ..pppIIU22%%%%ttss%ttsss333222222UUIppppp  ^^^",
"^^^ KK..p$$%%%WWWWWWcc%WW%%%%EEEEUUUUkkhpppgg  ^^^",
"^^^ aaLLg$$WWW%WW%!!cc%%%~~~~%%%%kkkkoor77App  ^^^",
"^^^ aaLLg$$WWW%WW%!!cc%%%~~~~%%%%kkkkoor77App  ^^^",
"^^^ LLKKpllttt%WW%WW%%W%%W%%WWWWW%zzyDDS44wgg  ^^^",
"^^^ LLKKpllttt%WW%WW%%W%%W%%WWWWW%zzyDDS44wgg  ^^^",
"^^^ KKLLghhkkk%WW%!!ccWWWWcc~tt%%W%%6ee5AA7pp  ^^^",
"^^^ ppKKpllzzz%WW%%%~~!%%%%%WWWWWW%%%00Hwwpjj  ^^^",
"^^^ ppKKpllzzz%WW%%%~~!%%%%%WWWWWW%%%00Hwwpjj  ^^^",
"^^^ bbiijhhkkkztt!tt%%%zzvcc~tt%%WWW%kkhjjibb  ^^^",
"^^^^  bbbiiippkkk%%%kkkkkkkk%%%kk%%%piiiBBb  ^^^^^",
"^^^^  bbbiiippkkk%%%kkkkkkkk%%%kk%%%piiiBBb  ^^^^^",
"^^^^^^  #bbBbbiiiiiiiiiiifxxxffiiiiiBBBb## ^^^^^^^",
"^^^^^^^^^   ##bbbBCCCCCCCBBBCCCBBbbb#   ^^^^^^^^^^",
"^^^^^^^^^   ##bbbBCCCCCCCBBBCCCBBbbb#   ^^^^^^^^^^",
"^^^^^^^^^^^^^^                      ^^^^^^^^^^^^^^",
"^^^^^^^^^^^^^^^^^^^^^^^^^^^^^^^^^^^^^^^^^^^^^^^^^^",
"^^^^^^^^^^^^^^^^^^^^^^^^^^^^^^^^^^^^^^^^^^^^^^^^^^",
"^^^^^^^^^^^^^^^^^^^^^^^^^^^^^^^^^^^^^^^^^^^^^^^^^^",
"^^^^^^^^^^^^^^^^^^^^^^^^^^^^^^^^^^^^^^^^^^^^^^^^^^",
"^^^^^^^^^^^^^^^^^^^^^^^^^^^^^^^^^^^^^^^^^^^^^^^^^^",
"^^^^^^^^^^^^^^^^^^^^^^^^^^^^^^^^^^^^^^^^^^^^^^^^^^",
"^^^^^^^^^^^^^^^^^^^^^^^^^^^^^^^^^^^^^^^^^^^^^^^^^^",
"^^^^^^^^^^^^^^^^^^^^^^^^^^^^^^^^^^^^^^^^^^^^^^^^^^"
};
