/* XPM */
static char *result[] = {
/* columns rows colors chars-per-pixel */
"50 50 8 1 ",
"  c gray54",
". c gray60",
"X c gray63",
"o c #A7A7A7",
"O c #E6E6E6",
"+ c #F4F4F4",
"@ c white",
"# c None",
/* pixels */
"##################################################",
"##################################################",
"##################################################",
"##################################################",
"################XX##############XX################",
"################XX##############XX################",
"##############XX++XX##########XX++XX##############",
"##############XX++XX##########XX++XX##############",
"##############XX@@++XX######XX++@@XX##############",
"##############XX@@++XX######XX++@@XX##############",
"##############XX@@OOXXXXXXXXXXOO@@XX##############",
"##############XX@@OOXXXXXXXXXXOO@@XX##############",
"##############XX++XX@@@@@@@@@@XX++XX##############",
"##############XX++XX@@@@@@@@@@XX++XX##############",
"##############XX++@@@@@@@@@@@@@@++..##############",
"##############XX++@@@@@@@@@@@@@@++..##############",
"##############..++@@@@@@oo@@@@@@++..##############",
"##############..++@@@@@@oo@@@@@@++..##############",
"##############..OO++@@oo@@oo@@++OO  ##############",
"##############..OO++@@oo@@oo@@++OO  ##############",
"################  OO++oo@@XX++OO  ################",
"################  OO++oo@@XX++OO  ################",
"################  ++++XX@@XX++++  ################",
"################  ++++XX@@XX++++  ################",
"################..++@@XX@@XX@@++..################",
"################..++@@XX@@XX@@++..################",
"################XX@@@@..@@..@@@@XX################",
"################XX@@@@..@@..@@@@XX################",
"################oo@@XX++@@++XX@@oo################",
"################oo@@XX++@@++XX@@oo################",
"################oo++@@@@@@@@@@++oo################",
"################oo++@@@@@@@@@@++oo################",
"################oo@@@@@@@@@@@@@@oo################",
"################oo@@@@@@@@@@@@@@oo################",
"################XX@@@@@@@@@@@@@@XX################",
"################XX@@@@@@@@@@@@@@XX################",
"################..++@@@@@@@@@@++..################",
"################..++@@@@@@@@@@++..################",
"##################..@@XXXXXX@@..##################",
"##################..@@XXXXXX@@..##################",
"##################XX++XX##XX++XX##################",
"##################XX++XX##XX++XX##################",
"##################XX++XX##XX++XX##################",
"##################XX++XX##XX++XX##################",
"##################XX++XX##XX++XX##################",
"##################XX++XX##XX++XX##################",
"####################XXXX##XXXX####################",
"####################XXXX##XXXX####################",
"##################################################",
"##################################################"
};
