/* XPM */
static char *result[] = {
/* columns rows colors chars-per-pixel */
"50 50 25 1 ",
"  c #1E1D39",
". c #241527",
"X c #341C27",
"o c #19332D",
"O c #172038",
"+ c #411D31",
"@ c #4D2B32",
"# c #602C2C",
"$ c #752438",
"% c #25562E",
"& c #253A5E",
"* c #402751",
"= c #7A367B",
"- c #7A4841",
"; c #A53030",
": c #884B2B",
"> c #BE772B",
", c #CF573C",
"< c #AD7757",
"1 c #468232",
"2 c #C09473",
"3 c #3C5E8B",
"4 c #A23E8C",
"5 c #C65197",
"6 c None",
/* pixels */
"666666666666666@@-----------------@@66666666666666",
"666666666666666@@-----------------@@66666666666666",
"666666666666@@-<<<<<<<<<<<<<<<<<<<<<-@@66666666666",
"666666666@@-<<<---------------------<<<-@@66666666",
"666666666@@-<<<---------------------<<<-@@66666666",
"66666666@--<--<---------------------<--<--@6666666",
"66666666-<<---<---------------------<---<<-6666666",
"66666666-<<---<---------------------<---<<-6666666",
"66666666@<<---<---------------------<---<<@6666666",
"66666666@<<---<<<<<<<<<<<<<<<<<<<<<<<---<<@6666666",
"66666666@<<---<<<<<<<<<<<<<<<<<<<<<<<---<<@6666666",
"66666666@<<-<<-----------------------<<-<<@6666666",
"66666666-<<<---------------------------<<<-6666666",
"66666666-<<<---------------------------<<<-6666666",
"66666666-@@---<<<<<<<<<<<<<<<<<<<<<<<---@@-6666666",
"66666666@---<<-@@@@@@@@@@@@@@@@@@@@@-<<---@6666666",
"66666666@---<<-@@@@@@@@@@@@@@@@@@@@@-<<---@6666666",
"66666666@--<--@.....................@--<--@6666666",
"66666666@--<@@.ooo....+++#::.........@@<--@6666666",
"66666666@--<@@.ooo....+++#::.........@@<--@6666666",
"66666666@--<XXXoo%OOOO+$$:>>XXXXXXXX.XX<--@6666666",
"66666666@--<@@X%%1OO&&$;;:>>X22XX<XXX@@<--@6666666",
"66666666@--<@@X%%1OO&&$;;:>>X22XX<XXX@@<--@6666666",
"66666666@--<@@X%%1&&33$;;:>>X2222-XXX@@<--@6666666",
"66666666@--<@@X%%1&&33$;;:>>X22<<<<<X@@<--@6666666",
"66666666@--<@@X%%1&&33$;;:>>X22<<<<<X@@<--@6666666",
"66666666@--<@@X%%1&&33$;;:>>X22<<-<<X@@<--@6666666",
"66666666@--<@@X%%1&&33$;;:>>X22<<-<<X@@<--@6666666",
"66666666@--<@@X%%1&&33$;;:>>X--<<---X@@<--@6666666",
"66666666@--<@@XoooOO&&+++###XXX@@@XXX@@<--@6666666",
"66666666@--<@@XoooOO&&+++###XXX@@@XXX@@<--@6666666",
"66666666@--<XX@---<<<<<<<<<<<<<<<---@XX<--@6666666",
"66666666@--<@@.......................@@<--@6666666",
"66666666@--<@@.......................@@<--@6666666",
"66666666@--<@@.XX+++++X   ***  XXXXX.@@<--@6666666",
"66666666@--<@@X++$$$$$+***===**XXXXXX@@<--@6666666",
"66666666@--<@@X++$$$$$+***===**XXXXXX@@<--@6666666",
"66666666@--<@@X$$;;;;;$==4445==XXXXXX@@<--@6666666",
"66666666@--<@@X;;,,,,,$==5554==XXXXXX@@<--@6666666",
"66666666@--<@@X;;,,,,,$==5554==XXXXXX@@<--@6666666",
"66666666@--<@@X;;,,,,,$===444==XXXXXX@@<--@6666666",
"66666666@--<@@X++$$$$$+**====**XXXXXX@@<--@6666666",
"66666666@--<@@X++$$$$$+**====**XXXXXX@@<--@6666666",
"66666666@--<XX@---<<<<<<<<<<<<<<<---@XX<--@6666666",
"66666666@---<<XXXXXXXXXXXXXXXXXXXXXXX<<---@6666666",
"66666666@---<<XXXXXXXXXXXXXXXXXXXXXXX<<---@6666666",
"66666666@---@@-----------------------@@---@6666666",
"666666666@@@<<<<<<<<<<<<<<<<<<<<<<<<<<<@@@66666666",
"666666666@@@<<<<<<<<<<<<<<<<<<<<<<<<<<<@@@66666666",
"666666666666666XXX----------------@@66666666666666"
};
